2.8Hzhigh3min_grf.mot
version=1
nRows=10
nColumns 19
inDegrees=yes
endheader
time	1_ground_force_vx	1_ground_force_vy	1_ground_force_vz	1_ground_force_px	1_ground_force_py	1_ground_force_pz	1_ground_torque_x	1_ground_torque_y	1_ground_torque_z	2_ground_force_vx	2_ground_force_vy	2_ground_force_vz	2_ground_force_px	2_ground_force_py	2_ground_force_pz	2_ground_torque_x	2_ground_torque_y	2_ground_torque_z
            0.005000	          -28.081863	          973.000570	          -63.948005	           -0.217095	            0.006338	           -0.431354	           -0.031013	            1.074562	           -0.070623	          -12.235192	         1037.883221	           91.839103	           -0.214510	            0.005678	           -0.688969	            0.018169	           -1.541217	           -0.136378
            0.005500	          -27.300675	          964.707970	          -63.847924	           -0.217027	            0.006338	           -0.431349	           -0.033713	            1.191304	           -0.078845	          -11.410973	         1030.152993	           91.482679	           -0.214512	            0.005678	           -0.689013	            0.018523	           -1.672214	           -0.148501
            0.006000	          -26.702050	          956.954407	          -63.378222	           -0.216949	            0.006337	           -0.431262	           -0.032193	            1.153731	           -0.076411	          -10.630967	         1021.686200	           91.076711	           -0.214587	            0.005678	           -0.688955	            0.017187	           -1.651722	           -0.147240
            0.006500	          -26.012470	          950.103326	          -63.134173	           -0.217023	            0.006336	           -0.431073	           -0.028719	            1.048948	           -0.069702	          -10.043616	         1014.691476	           90.816855	           -0.214611	            0.005678	           -0.689088	            0.014511	           -1.466055	           -0.131215
            0.007000	          -25.184333	          940.727508	          -62.671996	           -0.216892	            0.006337	           -0.431323	           -0.024612	            0.919355	           -0.061248	           -9.174788	         1007.515909	           89.899245	           -0.214764	            0.005677	           -0.689048	            0.011624	           -1.276431	           -0.113894
            0.007500	          -24.447756	          933.153481	          -62.018439	           -0.216933	            0.006337	           -0.431129	           -0.021186	            0.808639	           -0.053743	           -8.492572	         1000.154459	           89.262610	           -0.214805	            0.005678	           -0.689243	            0.008884	           -1.046270	           -0.093378
            0.008000	          -23.849018	          925.399843	          -61.502884	           -0.216854	            0.006337	           -0.431156	           -0.019101	            0.741154	           -0.049258	           -7.759874	          991.870025	           89.326600	           -0.214850	            0.005678	           -0.689192	            0.008107	           -1.036291	           -0.093327
            0.008500	          -23.479472	          915.663859	          -61.132835	           -0.216887	            0.006338	           -0.431409	           -0.018608	            0.725680	           -0.048449	           -7.119835	          983.219193	           88.732322	           -0.214823	            0.005678	           -0.689143	            0.008126	           -1.122154	           -0.101271
            0.009000	          -22.971703	          908.990164	          -60.245568	           -0.216819	            0.006336	           -0.431009	           -0.019923	            0.788358	           -0.052250	           -6.347763	          976.961876	           88.428094	           -0.214794	            0.005679	           -0.689467	            0.008262	           -1.271645	           -0.115101
            0.009500	          -22.236147	          900.156471	          -60.101840	           -0.216852	            0.006337	           -0.431140	           -0.018837	            0.762539	           -0.050913	           -5.804891	          969.232763	           87.508653	           -0.214833	            0.005679	           -0.689499	            0.007438	           -1.241980	           -0.112134
